<svg width="18" height="18" viewBox="0 0 18 18" fill="none" xmlns="http://www.w3.org/2000/svg">
<g clip-path="url(#clip0)" filter="url(#filter0_d)">
<path d="M13.9739 3.83595C13.9085 3.63346 13.7289 3.48965 13.5164 3.4705L10.6301 3.20842L9.4888 0.537072C9.40465 0.341297 9.21299 0.214569 9.00005 0.214569C8.78711 0.214569 8.59545 0.341297 8.5113 0.53753L7.36999 3.20842L4.48326 3.4705C4.27115 3.4901 4.09201 3.63346 4.02617 3.83595C3.96032 4.03844 4.02113 4.26054 4.18158 4.40054L6.36326 6.31389L5.71994 9.14775C5.67286 9.35612 5.75374 9.5715 5.92662 9.69647C6.01955 9.76361 6.12827 9.79779 6.23791 9.79779C6.33244 9.79779 6.42621 9.77231 6.51036 9.72195L9.00005 8.23396L11.4888 9.72195C11.6709 9.83152 11.9005 9.82152 12.073 9.69647C12.246 9.57112 12.3268 9.35566 12.2797 9.14775L11.6364 6.31389L13.8181 4.40093C13.9785 4.26054 14.0398 4.03882 13.9739 3.83595Z" fill="#FFC107"/>
</g>
<defs>
<filter id="filter0_d" x="0" y="0" width="18" height="18" filterUnits="userSpaceOnUse" color-interpolation-filters="sRGB">
<feFlood flood-opacity="0" result="BackgroundImageFix"/>
<feColorMatrix in="SourceAlpha" type="matrix" values="0 0 0 0 0 0 0 0 0 0 0 0 0 0 0 0 0 0 127 0" result="hardAlpha"/>
<feOffset dy="4"/>
<feGaussianBlur stdDeviation="2"/>
<feComposite in2="hardAlpha" operator="out"/>
<feColorMatrix type="matrix" values="0 0 0 0 0 0 0 0 0 0 0 0 0 0 0 0 0 0 0.25 0"/>
<feBlend mode="normal" in2="BackgroundImageFix" result="effect1_dropShadow"/>
<feBlend mode="normal" in="SourceGraphic" in2="effect1_dropShadow" result="shape"/>
</filter>
<clipPath id="clip0">
<rect width="10" height="10" fill="white" transform="translate(4)"/>
</clipPath>
</defs>
</svg>
